<?xml version="1.0" encoding="UTF-8"?>
<svg  viewBox="0 0 331 335" version="1.1" xmlns="http://www.w3.org/2000/svg" xmlns:xlink="http://www.w3.org/1999/xlink">
    <!-- Generator: Sketch 52.5 (67469) - http://www.bohemiancoding.com/sketch -->
    <title>BeeSpotLogo</title>
    <desc>Created with Sketch.</desc>
    <g class="" id="BeeSpotLogo" stroke="none" stroke-width="1" fill="none" fill-rule="evenodd">
        <g class="" id="Group-3" transform="translate(105.000000, 125.000000)" stroke="#000000">
            <g class="" id="Group-2">
                <polygon class="" id="Polygon" fill="#F8E71C" points="93 0 173.540363 46.75 173.540363 140.25 93 187 12.4596374 140.25 12.4596374 46.75"></polygon>
                <polygon class="" id="Polygon" fill="#F6B106" points="83.5955056 54.6292135 128.8429 80.8932584 128.8429 133.421348 83.5955056 159.685393 38.3481109 133.421348 38.3481109 80.8932584"></polygon>
                <polygon class="" id="Polygon" fill="#D0021B" points="77.3258427 96.6516854 95.4248006 107.157303 95.4248006 128.168539 77.3258427 138.674157 59.2268848 128.168539 59.2268848 107.157303"></polygon>
            </g>
        </g>
        <g class="" id="Group-45" transform="translate(19.000000, 26.000000)">
            <path d="M74.3192781,122.598613 C68.1238742,122.57201 65.5583974,125.503037 66.8577086,131.114266 C69.3455298,128.276348 71.832404,125.43748 74.3192781,122.598613 Z M59.1139272,113.061613 C58.3837748,112.39085 57.152649,110.351008 55.484,109.883564 C49.1058212,108.095495 38.5910596,115.767468 38.0029603,122.369641 C37.6932848,125.844119 39.1403311,128.154737 42.804351,128.658284 C49.5073576,129.580821 59.0334305,121.29984 59.1139272,113.061613 Z M169.487199,58.7468906 C169.182258,58.230992 168.879212,57.7150933 168.575219,57.1991947 C151.841377,62.2470208 134.365073,65.355714 119.768656,76.6807821 C124.982947,77.4180516 130.728517,78.6987724 135.04598,76.7672402 C146.847742,71.484742 158.049093,64.847416 169.487199,58.7468906 Z M49.3387881,109.157695 C50.0642053,108.99428 50.8388675,108.580041 51.5074636,108.711153 C54.1449139,109.228952 57.7151788,109.109241 59.0949868,110.769047 C60.4776358,112.433604 60.7541656,116.624449 59.584596,118.491375 C57.0920397,122.470351 53.8598609,126.440775 49.9960199,128.990816 C44.4313311,132.661962 40.4093377,131.327086 36.180894,126.158599 C33.8730066,131.776478 36.129755,136.856607 42.0372649,138.645626 C50.7432185,141.280225 57.9661391,137.62713 64.9125298,132.984042 C62.5194106,127.350011 65.9750861,121.628571 72.1089338,120.386804 C73.3542649,120.13408 75.0929934,119.214394 75.454755,118.193047 C77.6793046,111.913905 74.2766623,105.852333 67.7857881,104.385395 C60.9322053,102.836749 54.8987417,105.102713 49.3387881,109.157695 Z M146.613828,94.6545772 C152.887834,89.3787297 160.778404,86.1341737 169.301583,85.3541501 C180.567331,84.3223528 191.909788,84.0468268 203.22857,83.7076448 C214.727285,83.3637124 224.121722,78.0831143 233.149662,71.6063535 C223.747649,74.4718237 214.341848,73.1226965 205.008967,71.8476762 C180.542709,68.505261 156.80755,70.2429749 134.685166,81.2174599 C138.402219,85.4054549 142.224391,89.7103109 146.613828,94.6545772 Z M50.6096887,103.517963 C46.9750265,100.191699 42.1670066,99.5845922 38.5759073,102.3199 C31.0613046,108.04324 25.7210596,115.825424 22.9832252,124.960536 C22.5144503,126.523433 24.4350066,130.027363 26.0619868,130.720929 C28.6255695,131.813532 31.5689073,130.994555 32.6125232,127.329109 C36.6790265,113.052112 47.047,105.573007 60.681245,102.137483 C66.4078742,100.694297 72.2443576,101.496173 76.2133179,106.515496 C80.1709139,111.517718 79.5667152,117.280011 76.9841921,122.669869 C72.0199139,133.028696 63.6880331,139.341092 52.5065695,141.663111 C42.1518543,143.814114 37.0133245,141.321079 32.3805033,132.848179 C28.4153311,132.493796 24.8753709,132.178366 21.3202583,131.861036 C19.7311589,142.129605 25.4426358,149.452895 36.1638477,150.13221 C57.3098543,151.472786 74.6384238,143.430277 88.5861325,127.858309 C91.3514305,124.771468 93.5115828,120.815295 94.9188543,116.886674 C99.1226755,105.154017 91.8107351,93.2702967 79.2750331,91.5601354 C82.4920596,93.7215892 85.3198609,95.6208184 88.1467152,97.5209976 C87.7319205,97.694864 87.3171258,97.8687304 86.9023311,98.0425968 C87.1873841,99.317617 87.2896623,100.670545 87.7877947,101.855306 C90.9290596,109.332512 90.9337947,116.573144 86.3852583,124.558648 C87.0235497,108.984779 86.1144106,104.54691 81.5961788,100.330413 C81.6804636,101.779299 81.7590662,103.113225 81.889755,105.343085 C72.9896623,89.181111 52.4743709,88.3260304 45.4162318,97.5732525 C47.6417285,97.3404806 49.8009338,97.1134091 51.3540464,96.9509438 C51.1040331,99.1618023 50.8748543,101.180743 50.6096887,103.517963 Z M117.604715,125.414678 C127.172457,118.763101 135.132159,111.094928 140.64855,100.982174 C142.543536,97.5067462 142.031199,95.0051603 139.677854,92.0484815 C124.822901,73.382071 97.9748874,79.182368 86.4809073,90.5207374 C86.799106,90.8152651 87.0680596,91.1905505 87.4326623,91.3834187 C99.1586623,97.5751527 103.170238,110.779498 95.3497483,124.390482 C94.4377682,125.978081 93.8411457,127.749049 92.8912848,129.904802 L100.468391,129.904802 L100.468391,122.348739 C105.611656,129.856347 105.611656,129.856347 107.384477,129.506714 C107.014192,126.925321 106.646748,124.361979 106.280252,121.800537 C106.869298,121.656124 107.458344,121.51171 108.047391,121.368247 C109.179079,123.790975 110.311715,126.214654 111.443404,128.637382 C111.960477,128.681086 112.476603,128.725741 112.992728,128.769445 C113.359225,126.429374 113.726669,124.088353 114.186921,121.151626 C115.453086,122.730675 116.382113,123.888834 117.604715,125.414678 Z M133.747616,65.9457196 C142.593728,63.2550658 151.203086,60.4390002 159.926086,58.0333734 C170.162424,55.2106571 179.599477,50.9523555 188.841444,45.5786487 C201.866755,38.0035843 215.439444,31.2322956 229.257411,25.2248791 C237.547623,21.6202391 244.734556,16.8754916 251.333391,10.9754351 C252.876086,9.59590503 253.870457,7.59786658 255.707675,5.07252841 C252.94143,4.48537303 251.166715,3.71390027 249.444086,3.81841013 C244.589662,4.11673827 239.651901,4.29820538 234.933848,5.3661061 C194.706338,14.4708148 163.530444,38.8738663 133.747616,65.9457196 Z M153.765722,72.1308029 C155.555589,72.1308029 156.042358,72.2258119 156.477987,72.1165516 C173.067881,67.942808 189.834868,67.5133674 206.648258,70.1774187 C224.400146,72.990634 240.304397,69.787882 254.271993,57.7483465 C263.873828,49.473066 273.499338,41.3345984 279.826377,30.0988387 C283.142841,24.2111334 282.466669,22.6805391 276.000417,21.6202391 C263.048026,19.4977389 250.659113,22.6634375 238.384788,26.1911202 C207.25151,35.1371639 182.040894,55.0633932 153.765722,72.1308029 Z M116.522272,130.978403 C112.684,131.307134 111.754974,133.351727 113.116788,135.884666 C115.112159,139.595716 117.277046,143.35427 120.058444,146.475315 C130.859205,158.597508 144.151576,167.695566 157.221397,177.129956 C162.968861,181.279947 168.220086,186.6071 172.371821,192.360842 C176.739477,198.413863 178.575748,199.496965 184.940669,195.025844 C194.038689,188.635541 198.953722,179.240105 202.376252,169.151103 C208.899325,149.92604 204.666146,132.96124 190.02143,118.928417 C179.311583,108.665549 166.130013,103.425804 151.656709,101.029679 C147.072185,100.270557 143.865576,100.593587 141.492344,105.643314 C139.466669,109.95387 135.958907,113.712425 132.568576,117.187852 C128.516278,121.341644 123.89198,124.933933 119.034715,129.190334 C121.533901,131.90379 123.678901,135.210102 126.669589,137.292699 C134.675695,142.868775 137.034722,151.431932 140.248907,160.048295 C132.098854,150.062853 124.223437,140.413743 116.522272,130.978403 Z M0,94.0588711 C5.11106623,83.0045785 25.1073907,76.0271204 36.2983245,80.2151154 C40.8080331,81.9024745 44.377351,86.1189722 48.3747219,89.1849114 C48.1711126,89.6922592 47.9675033,90.1996071 47.763894,90.707905 C49.5509205,89.9468832 51.338894,89.1868116 53.1060331,88.4352907 C48.6228411,75.3611076 35.8901589,68.7921881 23.259755,72.9944344 C21.1374834,73.700351 19.3845497,75.5235729 17.4592583,76.8299461 C14.0907086,79.1149116 10.7922384,81.5224387 7.29489404,83.5898337 C6.52401987,84.0458767 4.4614106,83.6648908 4.04472185,83.0036284 C3.56647682,82.2416565 3.89319868,80.4782902 4.51633775,79.6203593 C5.6054106,78.1192177 7.00794702,76.6760316 8.59136424,75.7325926 C25.3450927,65.7528514 45.2476623,62.9766896 56.4414371,87.2391279 C64.5450861,85.0054672 72.7226026,84.7783958 80.8357219,87.8044312 C81.7164503,88.1331622 83.2922914,87.6068125 84.1048344,86.9379495 C91.3864702,80.9466844 99.8329404,78.1068666 108.985887,76.3054967 C113.711517,75.3753589 118.620868,73.1445485 122.428834,70.1831192 C134.011834,61.1772199 145.002947,51.4102987 156.398437,42.1564259 C180.188523,22.8392041 206.255245,7.9617509 236.536205,1.48213979 C238.820417,0.993793729 241.101788,0.494046595 243.384106,0 L251.907285,0 C259.438934,3.35381631 260.100901,6.79694105 254.26347,12.9069673 C252.361854,14.897405 250.22443,16.6598213 247.339808,19.3124714 C250.036921,19.0188937 251.536053,18.820325 253.040868,18.6996636 C259.605609,18.173314 266.169404,17.314433 272.736987,17.2745292 C277.71547,17.2441264 282.751722,18.1457614 286,22.8021506 L286,26.602509 C279.636026,40.4671666 269.326768,51.0112611 257.352649,59.9392531 C248.637225,66.437866 239.496589,72.3740259 230.425086,78.3785922 C220.408457,85.0083175 209.400298,87.6562172 197.313483,87.6980211 C186.041106,87.7369748 174.728954,89.0043944 163.530444,90.4675323 C159.224344,91.0299854 155.181517,93.6275304 150.35645,95.5647631 C158.646662,98.1670585 166.070351,99.9266245 173.035682,102.803496 C186.854596,108.510684 197.928099,117.615393 204.590384,131.400243 C211.849291,146.42211 210.860603,161.517133 203.99755,176.234971 C195.999967,193.385039 183.741742,207.029276 168.041099,217.523966 C166.562801,218.512059 164.789033,219.05456 162.58153,218.995654 C163.652609,217.766238 164.702854,216.516871 165.797609,215.310257 C173.050834,207.317153 173.492146,198.293202 166.305212,190.21839 C162.780404,186.257467 158.365397,183.044264 154.131272,179.779756 C149.762669,176.410738 145.055033,173.486362 140.625821,170.190501 C136.197556,166.897491 131.931232,163.38691 127.139311,159.613154 L127.139311,166.797731 C123.24706,159.828824 120.026245,154.05988 116.131152,147.085272 C113.260735,157.971399 112.360119,168.196263 102.623808,173.943355 C103.887132,171.390465 105.190232,168.856576 106.408099,166.282783 C110.92349,156.735332 113.507907,146.983613 108.992517,136.67229 C108.463132,135.462826 107.200755,134.576392 105.516954,133.944583 C108.960318,145.796001 107.459291,156.341045 99.9124901,165.643372 C97.9995099,168.001495 95.1063642,169.557742 92.1459801,170.982876 C100.883185,159.935234 106.895815,148.575963 100.777119,133.971185 C99.1861258,133.842923 97.3299669,133.692809 94.5807682,133.470488 C93.047543,139.435151 91.0322848,145.397913 90.0767417,151.527891 C89.136351,157.56191 89.2689338,163.765045 88.5056358,169.865571 C85.5679801,157.421297 85.417404,145.175592 91.3419603,133.308973 C80.7826887,143.304866 79.9597285,155.951508 81.8405099,169.736359 C76.4197682,164.605875 76.6991391,154.784798 82.368,139.026612 C80.5516159,140.218025 79.2011656,141.082606 77.8734437,141.979491 C66.1891126,149.880436 53.3617285,154.054179 39.2132517,153.924967 C22.2691722,153.771053 13.8653179,142.516291 18.6089404,126.052188 C22.4936159,112.566617 31.1077086,102.498517 42.1812119,94.3305967 C43.0676225,93.676935 43.9900199,93.0707779 44.8859007,92.4304175 C45.0061722,92.3449094 45.0724636,92.1833942 45.1633775,92.0570323 C41.2588146,81.4901357 26.5658013,77.8455919 18.3485099,85.3493996 C14.6229338,88.7516705 10.9683841,92.3097561 6.8403245,95.1524242 C5.16599338,96.305833 2.31546358,95.7414798 0,95.9590503 L0,94.0588711 Z" class="" id="Fill-1" fill="#000000"></path>
            <path d="M74.3192781,122.598613 C68.1238742,122.57201 65.5583974,125.503037 66.8577086,131.114266 C69.3455298,128.276348 71.832404,125.43748 74.3192781,122.598613 Z M59.1139272,113.061613 C58.3837748,112.39085 57.152649,110.351008 55.484,109.883564 C49.1058212,108.095495 38.5910596,115.767468 38.0029603,122.369641 C37.6932848,125.844119 39.1403311,128.154737 42.804351,128.658284 C49.5073576,129.580821 59.0334305,121.29984 59.1139272,113.061613 Z M169.487199,58.7468906 C169.182258,58.230992 168.879212,57.7150933 168.575219,57.1991947 C151.841377,62.2470208 134.365073,65.355714 119.768656,76.6807821 C124.982947,77.4180516 130.728517,78.6987724 135.04598,76.7672402 C146.847742,71.484742 158.049093,64.847416 169.487199,58.7468906 Z M49.3387881,109.157695 C50.0642053,108.99428 50.8388675,108.580041 51.5074636,108.711153 C54.1449139,109.228952 57.7151788,109.109241 59.0949868,110.769047 C60.4776358,112.433604 60.7541656,116.624449 59.584596,118.491375 C57.0920397,122.470351 53.8598609,126.440775 49.9960199,128.990816 C44.4313311,132.661962 40.4093377,131.327086 36.180894,126.158599 C33.8730066,131.776478 36.129755,136.856607 42.0372649,138.645626 C50.7432185,141.280225 57.9661391,137.62713 64.9125298,132.984042 C62.5194106,127.350011 65.9750861,121.628571 72.1089338,120.386804 C73.3542649,120.13408 75.0929934,119.214394 75.454755,118.193047 C77.6793046,111.913905 74.2766623,105.852333 67.7857881,104.385395 C60.9322053,102.836749 54.8987417,105.102713 49.3387881,109.157695 Z M146.613828,94.6545772 C152.887834,89.3787297 160.778404,86.1341737 169.301583,85.3541501 C180.567331,84.3223528 191.909788,84.0468268 203.22857,83.7076448 C214.727285,83.3637124 224.121722,78.0831143 233.149662,71.6063535 C223.747649,74.4718237 214.341848,73.1226965 205.008967,71.8476762 C180.542709,68.505261 156.80755,70.2429749 134.685166,81.2174599 C138.402219,85.4054549 142.224391,89.7103109 146.613828,94.6545772 Z M50.6096887,103.517963 C46.9750265,100.191699 42.1670066,99.5845922 38.5759073,102.3199 C31.0613046,108.04324 25.7210596,115.825424 22.9832252,124.960536 C22.5144503,126.523433 24.4350066,130.027363 26.0619868,130.720929 C28.6255695,131.813532 31.5689073,130.994555 32.6125232,127.329109 C36.6790265,113.052112 47.047,105.573007 60.681245,102.137483 C66.4078742,100.694297 72.2443576,101.496173 76.2133179,106.515496 C80.1709139,111.517718 79.5667152,117.280011 76.9841921,122.669869 C72.0199139,133.028696 63.6880331,139.341092 52.5065695,141.663111 C42.1518543,143.814114 37.0133245,141.321079 32.3805033,132.848179 C28.4153311,132.493796 24.8753709,132.178366 21.3202583,131.861036 C19.7311589,142.129605 25.4426358,149.452895 36.1638477,150.13221 C57.3098543,151.472786 74.6384238,143.430277 88.5861325,127.858309 C91.3514305,124.771468 93.5115828,120.815295 94.9188543,116.886674 C99.1226755,105.154017 91.8107351,93.2702967 79.2750331,91.5601354 C82.4920596,93.7215892 85.3198609,95.6208184 88.1467152,97.5209976 C87.7319205,97.694864 87.3171258,97.8687304 86.9023311,98.0425968 C87.1873841,99.317617 87.2896623,100.670545 87.7877947,101.855306 C90.9290596,109.332512 90.9337947,116.573144 86.3852583,124.558648 C87.0235497,108.984779 86.1144106,104.54691 81.5961788,100.330413 C81.6804636,101.779299 81.7590662,103.113225 81.889755,105.343085 C72.9896623,89.181111 52.4743709,88.3260304 45.4162318,97.5732525 C47.6417285,97.3404806 49.8009338,97.1134091 51.3540464,96.9509438 C51.1040331,99.1618023 50.8748543,101.180743 50.6096887,103.517963 Z M117.604715,125.414678 C127.172457,118.763101 135.132159,111.094928 140.64855,100.982174 C142.543536,97.5067462 142.031199,95.0051603 139.677854,92.0484815 C124.822901,73.382071 97.9748874,79.182368 86.4809073,90.5207374 C86.799106,90.8152651 87.0680596,91.1905505 87.4326623,91.3834187 C99.1586623,97.5751527 103.170238,110.779498 95.3497483,124.390482 C94.4377682,125.978081 93.8411457,127.749049 92.8912848,129.904802 L100.468391,129.904802 L100.468391,122.348739 C105.611656,129.856347 105.611656,129.856347 107.384477,129.506714 C107.014192,126.925321 106.646748,124.361979 106.280252,121.800537 C106.869298,121.656124 107.458344,121.51171 108.047391,121.368247 C109.179079,123.790975 110.311715,126.214654 111.443404,128.637382 C111.960477,128.681086 112.476603,128.725741 112.992728,128.769445 C113.359225,126.429374 113.726669,124.088353 114.186921,121.151626 C115.453086,122.730675 116.382113,123.888834 117.604715,125.414678 Z M133.747616,65.9457196 C142.593728,63.2550658 151.203086,60.4390002 159.926086,58.0333734 C170.162424,55.2106571 179.599477,50.9523555 188.841444,45.5786487 C201.866755,38.0035843 215.439444,31.2322956 229.257411,25.2248791 C237.547623,21.6202391 244.734556,16.8754916 251.333391,10.9754351 C252.876086,9.59590503 253.870457,7.59786658 255.707675,5.07252841 C252.94143,4.48537303 251.166715,3.71390027 249.444086,3.81841013 C244.589662,4.11673827 239.651901,4.29820538 234.933848,5.3661061 C194.706338,14.4708148 163.530444,38.8738663 133.747616,65.9457196 Z M153.765722,72.1308029 C155.555589,72.1308029 156.042358,72.2258119 156.477987,72.1165516 C173.067881,67.942808 189.834868,67.5133674 206.648258,70.1774187 C224.400146,72.990634 240.304397,69.787882 254.271993,57.7483465 C263.873828,49.473066 273.499338,41.3345984 279.826377,30.0988387 C283.142841,24.2111334 282.466669,22.6805391 276.000417,21.6202391 C263.048026,19.4977389 250.659113,22.6634375 238.384788,26.1911202 C207.25151,35.1371639 182.040894,55.0633932 153.765722,72.1308029 Z M116.522272,130.978403 C112.684,131.307134 111.754974,133.351727 113.116788,135.884666 C115.112159,139.595716 117.277046,143.35427 120.058444,146.475315 C130.859205,158.597508 144.151576,167.695566 157.221397,177.129956 C162.968861,181.279947 168.220086,186.6071 172.371821,192.360842 C176.739477,198.413863 178.575748,199.496965 184.940669,195.025844 C194.038689,188.635541 198.953722,179.240105 202.376252,169.151103 C208.899325,149.92604 204.666146,132.96124 190.02143,118.928417 C179.311583,108.665549 166.130013,103.425804 151.656709,101.029679 C147.072185,100.270557 143.865576,100.593587 141.492344,105.643314 C139.466669,109.95387 135.958907,113.712425 132.568576,117.187852 C128.516278,121.341644 123.89198,124.933933 119.034715,129.190334 C121.533901,131.90379 123.678901,135.210102 126.669589,137.292699 C134.675695,142.868775 137.034722,151.431932 140.248907,160.048295 C132.098854,150.062853 124.223437,140.413743 116.522272,130.978403 Z M0,94.0588711 C5.11106623,83.0045785 25.1073907,76.0271204 36.2983245,80.2151154 C40.8080331,81.9024745 44.377351,86.1189722 48.3747219,89.1849114 C48.1711126,89.6922592 47.9675033,90.1996071 47.763894,90.707905 C49.5509205,89.9468832 51.338894,89.1868116 53.1060331,88.4352907 C48.6228411,75.3611076 35.8901589,68.7921881 23.259755,72.9944344 C21.1374834,73.700351 19.3845497,75.5235729 17.4592583,76.8299461 C14.0907086,79.1149116 10.7922384,81.5224387 7.29489404,83.5898337 C6.52401987,84.0458767 4.4614106,83.6648908 4.04472185,83.0036284 C3.56647682,82.2416565 3.89319868,80.4782902 4.51633775,79.6203593 C5.6054106,78.1192177 7.00794702,76.6760316 8.59136424,75.7325926 C25.3450927,65.7528514 45.2476623,62.9766896 56.4414371,87.2391279 C64.5450861,85.0054672 72.7226026,84.7783958 80.8357219,87.8044312 C81.7164503,88.1331622 83.2922914,87.6068125 84.1048344,86.9379495 C91.3864702,80.9466844 99.8329404,78.1068666 108.985887,76.3054967 C113.711517,75.3753589 118.620868,73.1445485 122.428834,70.1831192 C134.011834,61.1772199 145.002947,51.4102987 156.398437,42.1564259 C180.188523,22.8392041 206.255245,7.9617509 236.536205,1.48213979 C238.820417,0.993793729 241.101788,0.494046595 243.384106,0 L251.907285,0 C259.438934,3.35381631 260.100901,6.79694105 254.26347,12.9069673 C252.361854,14.897405 250.22443,16.6598213 247.339808,19.3124714 C250.036921,19.0188937 251.536053,18.820325 253.040868,18.6996636 C259.605609,18.173314 266.169404,17.314433 272.736987,17.2745292 C277.71547,17.2441264 282.751722,18.1457614 286,22.8021506 L286,26.602509 C279.636026,40.4671666 269.326768,51.0112611 257.352649,59.9392531 C248.637225,66.437866 239.496589,72.3740259 230.425086,78.3785922 C220.408457,85.0083175 209.400298,87.6562172 197.313483,87.6980211 C186.041106,87.7369748 174.728954,89.0043944 163.530444,90.4675323 C159.224344,91.0299854 155.181517,93.6275304 150.35645,95.5647631 C158.646662,98.1670585 166.070351,99.9266245 173.035682,102.803496 C186.854596,108.510684 197.928099,117.615393 204.590384,131.400243 C211.849291,146.42211 210.860603,161.517133 203.99755,176.234971 C195.999967,193.385039 183.741742,207.029276 168.041099,217.523966 C166.562801,218.512059 164.789033,219.05456 162.58153,218.995654 C163.652609,217.766238 164.702854,216.516871 165.797609,215.310257 C173.050834,207.317153 173.492146,198.293202 166.305212,190.21839 C162.780404,186.257467 158.365397,183.044264 154.131272,179.779756 C149.762669,176.410738 145.055033,173.486362 140.625821,170.190501 C136.197556,166.897491 131.931232,163.38691 127.139311,159.613154 L127.139311,166.797731 C123.24706,159.828824 120.026245,154.05988 116.131152,147.085272 C113.260735,157.971399 112.360119,168.196263 102.623808,173.943355 C103.887132,171.390465 105.190232,168.856576 106.408099,166.282783 C110.92349,156.735332 113.507907,146.983613 108.992517,136.67229 C108.463132,135.462826 107.200755,134.576392 105.516954,133.944583 C108.960318,145.796001 107.459291,156.341045 99.9124901,165.643372 C97.9995099,168.001495 95.1063642,169.557742 92.1459801,170.982876 C100.883185,159.935234 106.895815,148.575963 100.777119,133.971185 C99.1861258,133.842923 97.3299669,133.692809 94.5807682,133.470488 C93.047543,139.435151 91.0322848,145.397913 90.0767417,151.527891 C89.136351,157.56191 89.2689338,163.765045 88.5056358,169.865571 C85.5679801,157.421297 85.417404,145.175592 91.3419603,133.308973 C80.7826887,143.304866 79.9597285,155.951508 81.8405099,169.736359 C76.4197682,164.605875 76.6991391,154.784798 82.368,139.026612 C80.5516159,140.218025 79.2011656,141.082606 77.8734437,141.979491 C66.1891126,149.880436 53.3617285,154.054179 39.2132517,153.924967 C22.2691722,153.771053 13.8653179,142.516291 18.6089404,126.052188 C22.4936159,112.566617 31.1077086,102.498517 42.1812119,94.3305967 C43.0676225,93.676935 43.9900199,93.0707779 44.8859007,92.4304175 C45.0061722,92.3449094 45.0724636,92.1833942 45.1633775,92.0570323 C41.2588146,81.4901357 26.5658013,77.8455919 18.3485099,85.3493996 C14.6229338,88.7516705 10.9683841,92.3097561 6.8403245,95.1524242 C5.16599338,96.305833 2.31546358,95.7414798 0,95.9590503 L0,94.0588711 Z" class="" id="Stroke-3" stroke="#000000"></path>
            <path d="M116.6853,131.27946 C124.305671,140.697427 132.098467,150.32877 140.163017,160.295825 C136.982551,151.69438 134.648274,143.147938 126.726161,137.582129 C123.766848,135.503367 121.644351,132.203144 119.171385,129.494684 C123.977692,125.24612 128.553476,121.660446 132.563261,117.513354 C135.918023,114.045274 139.389922,110.29364 141.393409,105.991021 C143.741742,100.950592 146.914711,100.628157 151.451137,101.385881 C165.772601,103.777595 178.815881,109.007691 189.41337,119.250713 C203.904446,133.257698 208.093214,150.192209 201.638576,169.380924 C198.251952,179.451349 193.388483,188.830433 184.385912,195.208969 C178.087766,199.67091 176.270759,198.590751 171.948925,192.548875 C167.840746,186.805727 162.644612,181.487435 156.957446,177.346034 C144.024742,167.929015 130.871823,158.846761 120.184373,146.747837 C117.432156,143.63254 115.289981,139.879957 113.315544,136.176689 C111.968016,133.648414 112.887296,131.607586 116.6853,131.27946" class="" id="Fill-5" fill="#000000"></path>
            <path d="M116.6853,131.27946 C124.305671,140.697427 132.098467,150.32877 140.163017,160.295825 C136.982551,151.69438 134.648274,143.147938 126.726161,137.582129 C123.766848,135.503367 121.644351,132.203144 119.171385,129.494684 C123.977692,125.24612 128.553476,121.660446 132.563261,117.513354 C135.918023,114.045274 139.389922,110.29364 141.393409,105.991021 C143.741742,100.950592 146.914711,100.628157 151.451137,101.385881 C165.772601,103.777595 178.815881,109.007691 189.41337,119.250713 C203.904446,133.257698 208.093214,150.192209 201.638576,169.380924 C198.251952,179.451349 193.388483,188.830433 184.385912,195.208969 C178.087766,199.67091 176.270759,198.590751 171.948925,192.548875 C167.840746,186.805727 162.644612,181.487435 156.957446,177.346034 C144.024742,167.929015 130.871823,158.846761 120.184373,146.747837 C117.432156,143.63254 115.289981,139.879957 113.315544,136.176689 C111.968016,133.648414 112.887296,131.607586 116.6853,131.27946 Z" class="" id="Stroke-7" stroke="#000000"></path>
            <path d="M238.657972,26.2426836 C250.867118,22.7638859 263.192138,19.6402779 276.076744,21.7339293 C282.508213,22.7798179 283.181788,24.2896086 279.882681,30.097289 C273.588753,41.1803337 264.013617,49.2081843 254.462033,57.3709882 C240.567535,69.2468839 224.746517,72.4061046 207.087533,69.6311261 C190.362133,67.0042215 173.682895,67.4268879 157.179822,71.5439026 C156.746473,71.652615 156.262252,71.5579602 154.481752,71.5579602 C182.608007,54.7225285 207.687627,35.0671339 238.657972,26.2426836 Z" class="" id="Fill-9" fill="#000000"></path>
            <path d="M154.481752,71.5579602 C182.608007,54.7225285 207.687627,35.0671339 238.657972,26.2426836 C250.867118,22.7638859 263.192138,19.6402779 276.076744,21.7339293 C282.508213,22.7798179 283.181788,24.2896086 279.882681,30.097289 C273.588753,41.1803337 264.013617,49.2081843 254.462033,57.3709882 C240.567535,69.2468839 224.746517,72.4061046 207.087533,69.6311261 C190.362133,67.0042215 173.682895,67.4268879 157.179822,71.5439026 C156.746473,71.652615 156.262252,71.5579602 154.481752,71.5579602 Z" class="" id="Stroke-11" stroke="#000000"></path>
            <path d="M133.605839,67.3846154 C163.173116,39.8609676 194.124361,15.0516264 234.062937,5.79400581 C238.746052,4.70924915 243.649173,4.52378763 248.468617,4.22144673 C250.177893,4.11422679 251.93982,4.89954039 254.686131,5.49649463 C252.863092,8.06301152 251.875886,10.0943947 250.344307,11.4969474 C243.792083,17.4954682 236.656937,22.3193994 228.427404,25.9841962 C214.709007,32.0918689 201.234121,38.9761616 188.302669,46.6776442 C179.127298,52.1410313 169.757307,56.4703985 159.595671,59.3402222 C150.935528,61.7859959 142.387268,64.6490581 133.605839,67.3846154" class="" id="Fill-13" fill="#000000"></path>
            <path d="M133.605839,67.3846154 C163.173116,39.8609676 194.124361,15.0516264 234.062937,5.79400581 C238.746052,4.70924915 243.649173,4.52378763 248.468617,4.22144673 C250.177893,4.11422679 251.93982,4.89954039 254.686131,5.49649463 C252.863092,8.06301152 251.875886,10.0943947 250.344307,11.4969474 C243.792083,17.4954682 236.656937,22.3193994 228.427404,25.9841962 C214.709007,32.0918689 201.234121,38.9761616 188.302669,46.6776442 C179.127298,52.1410313 169.757307,56.4703985 159.595671,59.3402222 C150.935528,61.7859959 142.387268,64.6490581 133.605839,67.3846154 Z" class="" id="Stroke-15" stroke="#000000"></path>
            <path d="M118.214028,126.012725 C117.014547,124.468244 116.104019,123.295939 114.861799,121.696642 C114.409323,124.6702 114.049757,127.038853 113.689263,129.408468 C113.182898,129.363268 112.676533,129.31903 112.170168,129.274792 C111.058953,126.82151 109.948667,124.36919 108.837451,121.91687 C108.259545,122.062085 107.681638,122.207301 107.103732,122.353479 C107.464227,124.947168 107.823792,127.540857 108.187074,130.153781 C106.447781,130.508646 106.447781,130.508646 101.402714,122.909338 L101.402714,130.557692 L93.9689059,130.557692 C94.9008031,128.375608 95.4852132,126.58301 96.379946,124.976019 C104.053464,111.198787 100.116826,97.8331607 88.6125875,91.5657994 C88.2548802,91.3705754 87.9919421,90.9907062 87.6788321,90.6916193 C98.9554386,79.2147602 125.296632,73.3445786 139.87065,92.2389853 C142.178559,95.2308161 142.681207,97.7639187 140.822058,101.281796 C135.410922,111.51807 127.600825,119.279904 118.214028,126.012725" class="" id="Fill-17" fill="#000000"></path>
            <path d="M118.214028,126.012725 C117.014547,124.468244 116.104019,123.295939 114.861799,121.696642 C114.409323,124.6702 114.049757,127.038853 113.689263,129.408468 C113.182898,129.363268 112.676533,129.31903 112.170168,129.274792 C111.058953,126.82151 109.948667,124.36919 108.837451,121.91687 C108.259545,122.062085 107.681638,122.207301 107.103732,122.353479 C107.464227,124.947168 107.823792,127.540857 108.187074,130.153781 C106.447781,130.508646 106.447781,130.508646 101.402714,122.909338 L101.402714,130.557692 L93.9689059,130.557692 C94.9008031,128.375608 95.4852132,126.58301 96.379946,124.976019 C104.053464,111.198787 100.116826,97.8331607 88.6125875,91.5657994 C88.2548802,91.3705754 87.9919421,90.9907062 87.6788321,90.6916193 C98.9554386,79.2147602 125.296632,73.3445786 139.87065,92.2389853 C142.178559,95.2308161 142.681207,97.7639187 140.822058,101.281796 C135.410922,111.51807 127.600825,119.279904 118.214028,126.012725 Z" class="" id="Stroke-19" stroke="#000000" stroke-width="3"></path>
            <path d="M50.4671066,104.66156 C50.7326249,102.315543 50.9621086,100.287226 51.2134027,98.0671442 C49.6572758,98.2312414 47.4951983,98.458306 45.2667412,98.6930031 C52.3342692,89.4062489 72.8768505,90.2648969 81.7887823,106.494296 C81.6579197,104.256088 81.5801608,102.915643 81.4948156,101.460712 C86.0190577,105.6948 86.9294061,110.151182 86.2902656,125.790977 C90.8458009,117.77216 90.8401112,110.50132 87.6946678,102.992921 C87.1958727,101.802263 87.0934585,100.444645 86.8080263,99.1633514 C87.2233728,98.9897137 87.6387193,98.8151219 88.0540657,98.6395761 C85.2234511,96.7324237 82.3918881,94.8243173 79.1705823,92.6538462 C91.7229596,94.372096 99.0446265,106.30444 94.8352133,118.086997 C93.4260698,122.031053 91.2630439,126.003731 88.4940675,129.104404 C74.5287536,144.740383 57.1761849,152.817397 36.0020494,151.470274 C25.2665758,150.788126 19.5475015,143.435238 21.1387147,133.122876 C24.6985563,133.44153 28.2432255,133.75923 32.2136723,134.114138 C36.8526562,142.623338 41.9980214,145.12582 52.3665107,142.965843 C63.5637964,140.635091 71.9058122,134.296362 76.8766939,123.893365 C79.4626524,118.481975 80.0676548,112.695642 76.1047943,107.671598 C72.1305544,102.632289 66.2863072,101.826114 60.5520603,103.275321 C46.8996787,106.726131 36.5188618,114.235484 32.4469491,128.572042 C31.4009967,132.25278 28.4546919,133.076128 25.887699,131.978966 C24.2576063,131.282508 22.3344953,127.763005 22.8038937,126.193588 C25.54537,117.020366 30.8927188,109.20667 38.4173175,103.459453 C42.0131938,100.712734 46.8285577,101.322374 50.4671066,104.66156" class="" id="Fill-21" stroke="#000000" stroke-width="4" fill="#000000"></path>
            <path d="M50.4671066,104.66156 C50.7326249,102.315543 50.9621086,100.287226 51.2134027,98.0671442 C49.6572758,98.2312414 47.4951983,98.458306 45.2667412,98.6930031 C52.3342692,89.4062489 72.8768505,90.2648969 81.7887823,106.494296 C81.6579197,104.256088 81.5801608,102.915643 81.4948156,101.460712 C86.0190577,105.6948 86.9294061,110.151182 86.2902656,125.790977 C90.8458009,117.77216 90.8401112,110.50132 87.6946678,102.992921 C87.1958727,101.802263 87.0934585,100.444645 86.8080263,99.1633514 C87.2233728,98.9897137 87.6387193,98.8151219 88.0540657,98.6395761 C85.2234511,96.7324237 82.3918881,94.8243173 79.1705823,92.6538462 C91.7229596,94.372096 99.0446265,106.30444 94.8352133,118.086997 C93.4260698,122.031053 91.2630439,126.003731 88.4940675,129.104404 C74.5287536,144.740383 57.1761849,152.817397 36.0020494,151.470274 C25.2665758,150.788126 19.5475015,143.435238 21.1387147,133.122876 C24.6985563,133.44153 28.2432255,133.75923 32.2136723,134.114138 C36.8526562,142.623338 41.9980214,145.12582 52.3665107,142.965843 C63.5637964,140.635091 71.9058122,134.296362 76.8766939,123.893365 C79.4626524,118.481975 80.0676548,112.695642 76.1047943,107.671598 C72.1305544,102.632289 66.2863072,101.826114 60.5520603,103.275321 C46.8996787,106.726131 36.5188618,114.235484 32.4469491,128.572042 C31.4009967,132.25278 28.4546919,133.076128 25.887699,131.978966 C24.2576063,131.282508 22.3344953,127.763005 22.8038937,126.193588 C25.54537,117.020366 30.8927188,109.20667 38.4173175,103.459453 C42.0131938,100.712734 46.8285577,101.322374 50.4671066,104.66156 Z" class="" id="Stroke-23" stroke="#000000"></path>
            <path d="M147.579969,96.8653846 C143.206033,91.7305068 139.398301,87.2596899 135.693431,82.9102393 C157.737694,71.5126656 181.389037,69.7089461 205.769841,73.1802182 C215.068821,74.5034063 224.441407,75.9045451 233.810219,72.9286052 C224.814159,79.656045 215.452897,85.1392341 203.994787,85.4974125 C192.716919,85.8486839 181.413572,86.134832 170.18855,87.2064072 C161.69547,88.0165022 153.83182,91.3861424 147.579969,96.8653846" class="" id="Fill-25" fill="#000000"></path>
            <path d="M147.579969,96.8653846 C143.206033,91.7305068 139.398301,87.2596899 135.693431,82.9102393 C157.737694,71.5126656 181.389037,69.7089461 205.769841,73.1802182 C215.068821,74.5034063 224.441407,75.9045451 233.810219,72.9286052 C224.814159,79.656045 215.452897,85.1392341 203.994787,85.4974125 C192.716919,85.8486839 181.413572,86.134832 170.18855,87.2064072 C161.69547,88.0165022 153.83182,91.3861424 147.579969,96.8653846 Z" class="" id="Stroke-27" stroke="#000000" stroke-width="4"></path>
            <path d="M49.8493589,110.574891 C55.5327554,106.501329 61.7001749,104.224982 68.7059219,105.780724 C75.3409074,107.254384 78.8190958,113.34373 76.5451563,119.651644 C76.1753629,120.67767 74.3980309,121.601571 73.1240827,121.855453 C66.8550184,123.10291 63.3216515,128.850565 65.7688711,134.510412 C58.6682556,139.174774 51.2849707,142.844608 42.3857262,140.197937 C36.3470568,138.400721 34.0402038,133.297315 36.3993313,127.653694 C40.7216556,132.844909 44.8329458,134.186856 50.5211826,130.498888 C54.4708092,127.937163 57.7747494,123.948546 60.3226458,119.951339 C61.5181823,118.075859 61.2355129,113.865811 59.8221661,112.193627 C58.4117235,110.526215 54.762191,110.646475 52.0661836,110.126303 C51.3827433,109.99459 50.5908819,110.410727 49.8493589,110.574891" class="" id="Fill-29" stroke="#000000" stroke-width="4" fill="#000000"></path>
            <path d="M49.8493589,110.574891 C55.5327554,106.501329 61.7001749,104.224982 68.7059219,105.780724 C75.3409074,107.254384 78.8190958,113.34373 76.5451563,119.651644 C76.1753629,120.67767 74.3980309,121.601571 73.1240827,121.855453 C66.8550184,123.10291 63.3216515,128.850565 65.7688711,134.510412 C58.6682556,139.174774 51.2849707,142.844608 42.3857262,140.197937 C36.3470568,138.400721 34.0402038,133.297315 36.3993313,127.653694 C40.7216556,132.844909 44.8329458,134.186856 50.5211826,130.498888 C54.4708092,127.937163 57.7747494,123.948546 60.3226458,119.951339 C61.5181823,118.075859 61.2355129,113.865811 59.8221661,112.193627 C58.4117235,110.526215 54.762191,110.646475 52.0661836,110.126303 C51.3827433,109.99459 50.5908819,110.410727 49.8493589,110.574891 Z" class="" id="Stroke-31" stroke="#000000"></path>
            <path d="M169.094891,58.4390277 C157.568524,64.6797293 146.281693,71.4685941 134.387911,76.8724721 C130.037132,78.8493584 124.247228,77.5392096 118.992701,76.7840273 C133.701749,65.1997068 151.312908,62.0195829 168.175873,56.8557692 C168.482212,57.3835221 168.788551,57.9112749 169.094891,58.4390277" class="" id="Fill-33" fill="#000000"></path>
            <path d="M169.094891,58.4390277 C157.568524,64.6797293 146.281693,71.4685941 134.387911,76.8724721 C130.037132,78.8493584 124.247228,77.5392096 118.992701,76.7840273 C133.701749,65.1997068 151.312908,62.0195829 168.175873,56.8557692 C168.482212,57.3835221 168.788551,57.9112749 169.094891,58.4390277 Z" class="" id="Stroke-35" stroke="#000000"></path>
            <path d="M75.1532847,124.240562 C72.4876252,127.048509 69.8219656,129.856455 67.155291,132.663462 C65.7625702,127.113351 68.5124832,124.214249 75.1532847,124.240562" class="" id="Fill-41" fill="#000000"></path>
            <path d="M75.1532847,124.240562 C72.4876252,127.048509 69.8219656,129.856455 67.155291,132.663462 C65.7625702,127.113351 68.5124832,124.214249 75.1532847,124.240562 Z" class="" id="Stroke-43" stroke="#000000"></path>
        </g>
    </g>
</svg>